<?xml version="1.0" encoding="UTF-8"?>
<svg id="Layer_3" data-name="Layer 3" xmlns="http://www.w3.org/2000/svg" xmlns:xlink="http://www.w3.org/1999/xlink" viewBox="0 0 1997.29 2010.07">
  <defs>
    <style>
      .cls-1 {
        filter: url(#drop-shadow-14);
      }

      .cls-1, .cls-2, .cls-3, .cls-4, .cls-5, .cls-6, .cls-7, .cls-8, .cls-9, .cls-10, .cls-11, .cls-12, .cls-13, .cls-14, .cls-15 {
        fill: #f2f2f2;
      }

      .cls-2 {
        filter: url(#drop-shadow-11);
      }

      .cls-3 {
        filter: url(#drop-shadow-8);
      }

      .cls-4 {
        filter: url(#drop-shadow-12);
      }

      .cls-5 {
        filter: url(#drop-shadow-1);
      }

      .cls-6 {
        filter: url(#drop-shadow-3);
      }

      .cls-8 {
        filter: url(#drop-shadow-7);
      }

      .cls-9 {
        filter: url(#drop-shadow-10);
      }

      .cls-10 {
        filter: url(#drop-shadow-13);
      }

      .cls-11 {
        filter: url(#drop-shadow-6);
      }

      .cls-12 {
        filter: url(#drop-shadow-4);
      }

      .cls-13 {
        filter: url(#drop-shadow-5);
      }

      .cls-14 {
        filter: url(#drop-shadow-9);
      }

      .cls-16 {
        fill: #bc4527;
      }

      .cls-15 {
        filter: url(#drop-shadow-2);
      }

      .cls-17 {
        fill: none;
        stroke: #020305;
        stroke-miterlimit: 10;
      }
    </style>
    <filter id="drop-shadow-1" x="737.36" y="734.33" width="486" height="506" filterUnits="userSpaceOnUse">
      <feOffset dx="0" dy="0"/>
      <feGaussianBlur result="blur" stdDeviation="10"/>
      <feFlood flood-color="#000" flood-opacity=".3"/>
      <feComposite in2="blur" operator="in"/>
      <feComposite in="SourceGraphic"/>
    </filter>
    <filter id="drop-shadow-2" x="964.36" y="667.33" width="195" height="653" filterUnits="userSpaceOnUse">
      <feOffset dx="0" dy="0"/>
      <feGaussianBlur result="blur-2" stdDeviation="10"/>
      <feFlood flood-color="#000" flood-opacity=".3"/>
      <feComposite in2="blur-2" operator="in"/>
      <feComposite in="SourceGraphic"/>
    </filter>
    <filter id="drop-shadow-3" x="970.36" y="545.33" width="90" height="149" filterUnits="userSpaceOnUse">
      <feOffset dx="0" dy="0"/>
      <feGaussianBlur result="blur-3" stdDeviation="10"/>
      <feFlood flood-color="#000" flood-opacity=".3"/>
      <feComposite in2="blur-3" operator="in"/>
      <feComposite in="SourceGraphic"/>
    </filter>
    <filter id="drop-shadow-4" x="970.36" y="1316.33" width="90" height="149" filterUnits="userSpaceOnUse">
      <feOffset dx="0" dy="0"/>
      <feGaussianBlur result="blur-4" stdDeviation="10"/>
      <feFlood flood-color="#000" flood-opacity=".3"/>
      <feComposite in2="blur-4" operator="in"/>
      <feComposite in="SourceGraphic"/>
    </filter>
    <filter id="drop-shadow-5" x="1324.36" y="945.33" width="149" height="91" filterUnits="userSpaceOnUse">
      <feOffset dx="0" dy="0"/>
      <feGaussianBlur result="blur-5" stdDeviation="10"/>
      <feFlood flood-color="#000" flood-opacity=".3"/>
      <feComposite in2="blur-5" operator="in"/>
      <feComposite in="SourceGraphic"/>
    </filter>
    <filter id="drop-shadow-6" x="554.36" y="945.33" width="148" height="91" filterUnits="userSpaceOnUse">
      <feOffset dx="0" dy="0"/>
      <feGaussianBlur result="blur-6" stdDeviation="10"/>
      <feFlood flood-color="#000" flood-opacity=".3"/>
      <feComposite in2="blur-6" operator="in"/>
      <feComposite in="SourceGraphic"/>
    </filter>
    <filter id="drop-shadow-7" x="1195.36" y="619.33" width="103" height="113" filterUnits="userSpaceOnUse">
      <feOffset dx="0" dy="0"/>
      <feGaussianBlur result="blur-7" stdDeviation="10"/>
      <feFlood flood-color="#000" flood-opacity=".3"/>
      <feComposite in2="blur-7" operator="in"/>
      <feComposite in="SourceGraphic"/>
    </filter>
    <filter id="drop-shadow-8" x="733.36" y="1281.33" width="101" height="109" filterUnits="userSpaceOnUse">
      <feOffset dx="0" dy="0"/>
      <feGaussianBlur result="blur-8" stdDeviation="10"/>
      <feFlood flood-color="#000" flood-opacity=".3"/>
      <feComposite in2="blur-8" operator="in"/>
      <feComposite in="SourceGraphic"/>
    </filter>
    <filter id="drop-shadow-9" x="1315.36" y="770.33" width="115" height="99" filterUnits="userSpaceOnUse">
      <feOffset dx="0" dy="0"/>
      <feGaussianBlur result="blur-9" stdDeviation="10"/>
      <feFlood flood-color="#000" flood-opacity=".3"/>
      <feComposite in2="blur-9" operator="in"/>
      <feComposite in="SourceGraphic"/>
    </filter>
    <filter id="drop-shadow-10" x="601.36" y="1142.33" width="111" height="97" filterUnits="userSpaceOnUse">
      <feOffset dx="0" dy="0"/>
      <feGaussianBlur result="blur-10" stdDeviation="10"/>
      <feFlood flood-color="#000" flood-opacity=".3"/>
      <feComposite in2="blur-10" operator="in"/>
      <feComposite in="SourceGraphic"/>
    </filter>
    <filter id="drop-shadow-11" x="1312.36" y="1146.33" width="115" height="99" filterUnits="userSpaceOnUse">
      <feOffset dx="0" dy="0"/>
      <feGaussianBlur result="blur-11" stdDeviation="10"/>
      <feFlood flood-color="#000" flood-opacity=".3"/>
      <feComposite in2="blur-11" operator="in"/>
      <feComposite in="SourceGraphic"/>
    </filter>
    <filter id="drop-shadow-12" x="603.36" y="768.33" width="110" height="97" filterUnits="userSpaceOnUse">
      <feOffset dx="0" dy="0"/>
      <feGaussianBlur result="blur-12" stdDeviation="10"/>
      <feFlood flood-color="#000" flood-opacity=".3"/>
      <feComposite in2="blur-12" operator="in"/>
      <feComposite in="SourceGraphic"/>
    </filter>
    <filter id="drop-shadow-13" x="1191.36" y="1282.33" width="103" height="113" filterUnits="userSpaceOnUse">
      <feOffset dx="0" dy="0"/>
      <feGaussianBlur result="blur-13" stdDeviation="10"/>
      <feFlood flood-color="#000" flood-opacity=".3"/>
      <feComposite in2="blur-13" operator="in"/>
      <feComposite in="SourceGraphic"/>
    </filter>
    <filter id="drop-shadow-14" x="736.36" y="619.33" width="101" height="109" filterUnits="userSpaceOnUse">
      <feOffset dx="0" dy="0"/>
      <feGaussianBlur result="blur-14" stdDeviation="10"/>
      <feFlood flood-color="#000" flood-opacity=".3"/>
      <feComposite in2="blur-14" operator="in"/>
      <feComposite in="SourceGraphic"/>
    </filter>
  </defs>
  <g id="Layer_2" data-name="Layer 2">
    <rect class="cls-16" x="454.79" y="438.59" width="1134.78" height="1109.74"/>
    <path class="cls-5" d="M985.43,1004.88l-10.25,4.58-93.27,70.09c-24.72-16.17-62.97-8.26-89.46,19.87-28.97,30.77-32.96,74.09-8.91,96.75,24.07,22.66,67.08,16.07,96.05-14.68,22.81-24.21,30.14-56.21,20.5-79.78l.31-.23,95.16-64.53,20-4.88,174.85-237.29,2.15-29.99-207.13,240.09ZM861.72,1170.39c-19.56,18.47-47.12,21.04-61.56,5.75-14.44-15.29-10.3-42.67,9.26-61.13,19.56-18.47,47.12-21.04,61.56-5.75,14.43,15.29,10.29,42.67-9.26,61.13Z"/>
    <path class="cls-15" d="M1128.93,1207.9c-3.42-38.5-28.57-68.38-58-70.96l-29.94-112.76-5.22-9.94-14.24-316.77-16.86,24.9-9.38,294.6,12.7,16.2,34.85,109.57.1.37c-22.15,12.56-36.19,42.25-33.24,75.37,3.73,42.08,33.46,73.86,66.38,70.95,32.91-2.92,56.58-39.44,52.84-81.53ZM1073.63,1261.69c-20.95,1.86-39.86-18.36-42.25-45.15-2.37-26.79,12.68-50.02,33.63-51.88,20.95-1.85,39.86,18.36,42.25,45.15,2.37,26.79-12.68,50.02-33.63,51.88Z"/>
    <circle class="cls-17" cx="1015.36" cy="1001.12" r="8.85"/>
  </g>
  <g id="Layer_1" data-name="Layer 1">
    <path class="cls-7" d="M1015.36,493.21c-280.51,0-507.91,227.4-507.91,507.91s227.4,507.91,507.91,507.91,507.91-227.4,507.91-507.91-227.4-507.91-507.91-507.91ZM1015.36,1470.15c-259.04,0-469.03-209.99-469.03-469.03s209.99-469.03,469.03-469.03,469.03,209.99,469.03,469.03-209.99,469.03-469.03,469.03Z"/>
    <rect class="cls-6" x="1000.47" y="575.93" width="29.78" height="87.69" rx="4.24" ry="4.24"/>
    <rect class="cls-12" x="1000.47" y="1346.9" width="29.78" height="87.69" rx="2.87" ry="2.87"/>
    <rect class="cls-13" x="1384.3" y="947.35" width="29.78" height="87.69" rx="3.88" ry="3.88" transform="translate(2390.38 -408) rotate(90)"/>
    <rect class="cls-11" x="613.33" y="947.35" width="29.78" height="87.69" rx="3.92" ry="3.92" transform="translate(1619.41 362.97) rotate(90)"/>
    <rect class="cls-8" x="1238.41" y="647.89" width="16.97" height="55.39" rx="4.24" ry="4.24" transform="translate(613.66 -593.34) rotate(35.03)"/>
    <rect class="cls-3" x="775.52" y="1311.4" width="16.97" height="49.07" rx="2.87" ry="2.87" transform="translate(908.85 -208.02) rotate(35.03)"/>
    <rect class="cls-14" x="1364.45" y="791.95" width="16.97" height="55.39" rx="4.24" ry="4.24" transform="translate(1468.83 -776.47) rotate(62.6)"/>
    <rect class="cls-9" x="648.48" y="1166.21" width="16.97" height="49.07" rx="2.87" ry="2.87" transform="translate(1411.82 59.51) rotate(62.6)"/>
    <rect class="cls-2" x="1361.77" y="1168.32" width="16.97" height="55.39" rx="4.24" ry="4.24" transform="translate(3069.76 548.12) rotate(118.02)"/>
    <rect class="cls-4" x="649.84" y="792.69" width="16.97" height="49.07" rx="2.87" ry="2.87" transform="translate(1689.02 619.91) rotate(118.02)"/>
    <rect class="cls-10" x="1234.19" y="1311.01" width="16.97" height="55.39" rx="4.24" ry="4.24" transform="translate(3024.43 1740.82) rotate(145.59)"/>
    <rect class="cls-1" x="778.43" y="648.88" width="16.97" height="49.07" rx="2.87" ry="2.87" transform="translate(1816.7 784.25) rotate(145.59)"/>
  </g>
</svg>